<svg xmlns="http://www.w3.org/2000/svg" viewBox="0 0 512 512" role="img" aria-labelledby="title desc">
  <title id="title">Deen_Guide maskable icon</title>
  <desc id="desc">A centered gold crescent and book with generous safe area.</desc>
  <rect width="512" height="512" fill="#0d2318"/>
  <circle cx="256" cy="256" r="132" fill="none" stroke="rgba(249,230,161,.18)" stroke-width="14"/>
  <path d="M296 142c-36 16-61 51-61 93 0 59 48 107 107 107 12 0 24-2 35-6-23 37-64 62-111 62-72 0-130-58-130-130 0-66 49-121 113-129 15-2 31-1 47 3Z" fill="#d4af37"/>
  <path d="M168 318c35-20 68-20 100-2 32-18 65-18 100 2v58c-35-16-68-14-100 6-32-20-65-22-100-6v-58Z" fill="#f9e6a1"/>
  <path d="M268 316v66" stroke="#876815" stroke-width="9" stroke-linecap="round"/>
</svg>
